<?xml version="1.0" standalone="no"?>
<!DOCTYPE svg PUBLIC "-//W3C//DTD SVG 20010904//EN"
 "http://www.w3.org/TR/2001/REC-SVG-20010904/DTD/svg10.dtd"> 
<svg version="1.0" xmlns="http://www.w3.org/2000/svg"
 width="492.000000pt" height="459.000000pt" viewBox="0 0 492.000000 459.000000"
 preserveAspectRatio="xMidYMid meet">

<g transform="translate(0.000000,459.000000) scale(0.100000,-0.100000)"
fill="#000000" stroke="none">
<path d="M0 2295 l0 -2295 2460 0 2460 0 0 2295 0 2295 -2460 0 -2460 0 0
-2295z m2646 1454 c39 -43 29 -349 -13 -418 -103 -166 -316 -201 -450 -72 -75
72 -87 113 -91 296 -4 152 -3 161 18 188 l21 27 248 0 c239 0 249 -1 267 -21z
m-566 -721 c0 -44 40 -126 80 -166 38 -38 95 -69 147 -80 l38 -8 0 -159 c0
-173 -4 -198 -36 -238 -20 -27 -20 -27 -164 -27 -142 0 -143 0 -159 25 -10 14
-20 48 -23 76 -6 48 -5 50 35 84 66 57 79 138 31 199 -73 93 -220 64 -250 -48
-15 -56 2 -106 50 -148 34 -30 39 -39 44 -93 3 -33 8 -68 12 -77 7 -16 -2 -18
-95 -18 l-102 0 4 213 c5 236 11 262 75 349 59 82 179 146 276 147 35 1 37 -1
37 -31z m504 0 c-9 -48 -54 -109 -99 -136 -56 -32 -175 -29 -227 7 -45 31 -77
79 -85 125 l-6 36 211 0 212 0 -6 -32z m220 17 c71 -22 130 -59 169 -108 80
-99 87 -130 87 -378 l0 -209 -110 0 -110 0 0 145 0 145 -32 0 -33 0 3 -145 3
-145 -187 0 c-173 0 -186 1 -179 18 19 46 25 100 25 247 l0 160 48 17 c92 33
172 131 187 231 6 35 8 37 43 37 20 0 59 -7 86 -15z m-1335 -1055 l53 -12 -6
-62 c-13 -111 -9 -106 -74 -89 -35 9 -87 14 -134 11 -92 -4 -128 -28 -128 -86
0 -54 39 -84 156 -120 130 -41 186 -86 210 -169 11 -39 14 -73 10 -110 -18
-150 -97 -219 -262 -230 -81 -6 -217 9 -275 29 -30 10 -30 11 -23 67 4 31 10
66 15 78 8 21 9 21 61 7 69 -18 219 -20 255 -2 20 9 31 25 37 51 14 55 -12 85
-110 123 -43 18 -98 40 -121 49 -98 39 -133 96 -133 215 0 137 66 224 193 256
59 15 194 12 276 -6z m1393 4 c86 -16 87 -16 82 -42 -3 -15 -8 -49 -12 -77 -7
-48 -9 -50 -37 -47 -17 2 -79 4 -138 5 -108 2 -109 2 -133 -26 -13 -15 -24
-41 -24 -56 0 -52 32 -77 153 -117 97 -32 118 -43 158 -83 56 -55 73 -108 66
-196 -8 -103 -67 -186 -154 -216 -74 -27 -349 -13 -401 20 -10 6 -11 22 -2 76
6 38 13 72 15 76 3 4 29 1 58 -7 61 -17 211 -20 249 -5 32 12 48 39 48 79 0
42 -41 73 -144 111 -181 65 -218 102 -224 225 -5 96 10 148 61 203 48 52 65
63 132 79 70 17 146 17 247 -2z m-752 -20 c70 -23 150 -100 168 -160 15 -52
16 -181 1 -239 -15 -61 -75 -127 -141 -155 -41 -18 -78 -24 -160 -28 l-108 -5
0 -128 0 -129 -100 0 -100 0 0 428 c0 236 3 432 8 436 4 5 90 6 192 3 144 -3
197 -8 240 -23z m1178 -151 l2 -173 145 0 145 0 0 175 0 175 95 0 95 0 0 -435
0 -435 -95 0 -95 0 0 175 0 175 -145 0 -145 0 0 -175 0 -175 -95 0 -95 0 0
435 0 436 93 -3 92 -3 3 -172z"/>
<path d="M1870 1690 l0 -150 64 0 c130 0 161 30 161 158 0 82 -1 84 -33 113
-30 27 -38 29 -112 29 l-80 0 0 -150z"/>
</g>
</svg>
