<?xml version="1.0" standalone="no"?>
<!DOCTYPE svg PUBLIC "-//W3C//DTD SVG 20010904//EN"
 "http://www.w3.org/TR/2001/REC-SVG-20010904/DTD/svg10.dtd">
<svg version="1.0" xmlns="http://www.w3.org/2000/svg"
 width="600.000000pt" height="600.000000pt" viewBox="0 0 600.000000 600.000000"
 preserveAspectRatio="xMidYMid meet">

<g transform="translate(0.000000,600.000000) scale(0.100000,-0.100000)"
fill="#000000" stroke="none">
<path d="M2775 5804 c-294 -24 -617 -106 -900 -228 -330 -143 -607 -334 -875
-605 -431 -435 -695 -967 -787 -1586 -25 -170 -25 -611 0 -775 100 -643 378
-1188 828 -1625 434 -421 952 -676 1569 -772 164 -25 605 -25 775 0 619 92
1151 356 1586 787 447 443 712 962 811 1590 19 125 22 182 22 410 0 224 -4
287 -23 409 -95 615 -361 1143 -795 1577 -432 432 -967 702 -1572 794 -135 21
-506 34 -639 24z m580 -395 c530 -81 989 -312 1365 -689 378 -377 602 -823
691 -1375 40 -249 28 -593 -32 -866 -179 -827 -786 -1509 -1588 -1783 -73 -25
-135 -46 -137 -46 -2 0 -4 230 -4 510 0 427 -3 523 -16 587 -21 101 -62 190
-113 246 l-42 45 63 7 c285 32 555 135 738 282 179 144 291 355 346 648 29
152 26 488 -4 600 -28 105 -107 262 -176 351 l-55 72 21 63 c30 91 36 287 13
400 -9 46 -26 113 -38 148 -19 55 -27 66 -52 73 -94 26 -380 -79 -598 -219
l-78 -50 -97 24 c-181 43 -311 57 -547 57 -236 0 -366 -14 -547 -58 l-97 -23
-27 41 c-53 79 -153 155 -255 192 -97 35 -274 53 -382 38 -44 -6 -46 -8 -75
-73 -73 -161 -79 -401 -13 -568 l18 -48 -47 -58 c-100 -123 -174 -289 -200
-449 -21 -126 -8 -437 23 -568 58 -244 137 -400 272 -535 177 -176 415 -283
738 -331 l115 -17 -38 -49 c-50 -63 -87 -141 -106 -228 l-16 -69 -52 -20 c-85
-31 -166 -43 -277 -39 -94 3 -111 6 -171 36 -92 45 -157 107 -232 221 -75 115
-151 187 -245 234 -117 59 -183 59 -210 0 -25 -55 -9 -84 71 -132 79 -47 167
-172 241 -339 43 -99 60 -126 112 -178 71 -71 157 -117 265 -140 84 -18 336
-24 438 -11 l62 9 0 -345 0 -345 -82 25 c-507 153 -981 494 -1280 919 -120
171 -210 334 -277 501 -170 427 -217 878 -140 1333 172 1011 983 1815 2001
1985 234 39 514 40 753 4z"/>
</g>
</svg>
